---

id: e425f7c8-f6b7-43f0-88fc-9181c0a88591

---

classDiagram
    class User{
        -int user_id
        -String user_name
        -String password
        -String role
        -int loginAttempts
        -int blocked
        +getName() String
        +setName(String name)
        +getPassword() String
        +setPassword(String password)
        +inscribirseAmateria()
        +darseDeBaja()
        +realizarQueja()
    }

    class Admin {
        +desbloquearUsuario()
        +crearMateria()
        +asignarDocenteAMateria()
        +obtenerQuejas()
    }

    class Person {
        -int dni
        -String name
        -String lastname
        -int cellphone
        -String email
        +getCellphone()
    }

    class StudyPlan {
        -int cod_StudyPlan
        -DateTime yearOfcreation_StudyPlan
    }

    class DegreeProgram {
        -int codigo_DegreeProgram
        -String nombre_DegreeProgram
    }

    class Faculty {
        -int id_Faculty
        -String nombre_Faculty
    }
%%queja
    class Complaint {
        -int id_complaint
        -int id_user
        -String title
        -String description
        -String status
        -DateTime created_at
    }
%%email teacher is a diferent email (email giving by Faculty) that a personal email
    class Teacher {
        -int id
        -String email_teacher
        -int user_id
        +subirNota(Alumno)
        +modificarNota()
        +verInscriptos(Course)
    }

    class Student {
        -tipo : TEstudent
    }

    class TStudent{
        <<enumeration>> TEstudiante
                EFFECTIVE
                NON_EFFECTIVE
    }

    class Course {
        -int id_materia
        -String nombre_materia
        -int teacher_teorico_id
        -int teacher_practico_id
    }

    class Enrollment {
        -int id_Enrollment
        -int id_user
        -int id_materia
        -double calificacion
        -int modificada
        -String comentario
    }


    %% Relaciones
    Course "*" -- "*" StudyPlan : pertenece a
    Course "1" -- "0..*" Enrollment : registra
    StudyPlan "1" *-- "1..*" Course : esta conformado
    DegreeProgram "1" -- "1..*" StudyPlan : tiene pertenece
    
    Person "1" -- "1..3" User : posee
    Person "1" <|--  "1" Admin : es
    Person "1" <|--  "1" Student : es
    Person "1" <|--  "1" Teacher : es

    User "1" -- "0..*" Enrollment : posee
    User "1" -- "0..*" Complaint : realiza 

    Admin "1" -- "0..*" Course : Crea
    Admin "1" -- "0..*" Teacher : Crea
    Admin "1" -- "0..*" Complaint : Gestiona

    Teacher "1" -- "0..*" Course : dicta_teoria
    Teacher "1" -- "0..*" Course : dicta_practica
    Teacher "1..*" -- "1..*" Faculty

    Student "+" -- "*" Faculty : pertenece
    
    Faculty "1" -- "1..*" DegreeProgram : pertenece tiene
    
    Student --> TStudent
